<svg width="15" height="10" viewBox="0 0 15 10" fill="none" xmlns="http://www.w3.org/2000/svg">
<path d="M5.15668 5.87212H7.36675C6.97881 6.96891 5.92814 7.75527 4.69809 7.7462C3.20558 7.73518 1.97149 6.54121 1.91354 5.04978C1.85143 3.45109 3.13403 2.13068 4.71917 2.13068C5.44395 2.13068 6.10536 2.40684 6.604 2.85935C6.7221 2.96656 6.90189 2.96724 7.01805 2.8579L7.82979 2.09392C7.95673 1.97442 7.95719 1.77263 7.83062 1.65273C7.03984 0.90356 5.97905 0.436599 4.80925 0.413755C2.3142 0.365043 0.211096 2.41073 0.193716 4.90621C0.176182 7.42043 2.20903 9.46405 4.71917 9.46405C7.13313 9.46405 9.10513 7.57395 9.23722 5.19302C9.24074 5.16317 9.24305 4.15432 9.24305 4.15432H5.15668C4.98919 4.15432 4.85342 4.29009 4.85342 4.45759V5.56885C4.85342 5.73635 4.98922 5.87212 5.15668 5.87212Z" fill="white"/>
<path d="M12.9878 4.25521V3.16944C12.9878 3.02266 12.8688 2.90369 12.7221 2.90369H11.8082C11.6614 2.90369 11.5424 3.02266 11.5424 3.16944V4.25521H10.4567C10.3099 4.25521 10.1909 4.37418 10.1909 4.52097V5.43482C10.1909 5.58161 10.3099 5.70058 10.4567 5.70058H11.5424V6.78635C11.5424 6.93313 11.6614 7.0521 11.8082 7.0521H12.7221C12.8688 7.0521 12.9878 6.93313 12.9878 6.78635V5.70058H14.0736C14.2204 5.70058 14.3393 5.58161 14.3393 5.43482V4.52097C14.3393 4.37418 14.2204 4.25521 14.0736 4.25521H12.9878Z" fill="white"/>
</svg>
