<svg width="174" height="103" viewBox="0 0 174 103" fill="none" xmlns="http://www.w3.org/2000/svg">
<path d="M68.0462 1.59412H96.6436C101.137 1.59412 104.814 5.28879 104.814 9.8045V26.6358C104.814 31.1515 101.137 34.8462 96.6436 34.8462H80.5065L69.2718 44.6986V34.8462H65.595C62.3267 34.8462 59.8755 32.3831 59.8755 29.3042V9.8045C59.8755 5.28879 63.5523 1.59412 68.0462 1.59412Z" stroke="white" stroke-width="3" stroke-linecap="round" stroke-linejoin="round"/>
<path d="M78.2178 39.0568C78.2178 41.3518 80.0424 43.2295 82.2724 43.4381L96.2609 43.8554L107.411 53.8698V43.8554H111.06C114.101 43.8554 116.737 41.3518 116.737 38.0136V18.1935C116.737 13.6035 113.088 9.84814 108.627 9.84814H104.94" stroke="white" stroke-width="3" stroke-linecap="round" stroke-linejoin="round"/>
<path d="M73.3626 16.0837H75.9172C76.98 16.0837 77.8416 16.9453 77.8416 18.0081C77.8416 19.071 76.98 19.9326 75.9172 19.9326H73.3626V23.0711C73.3626 24.2137 72.4364 25.1399 71.2938 25.1399C70.1513 25.1399 69.2251 24.2137 69.2251 23.0711V19.9326H66.6574C65.5945 19.9326 64.7329 19.071 64.7329 18.0081C64.7329 16.9453 65.5945 16.0837 66.6574 16.0837H69.2251V13.0916C69.2251 11.949 70.1513 11.0228 71.2938 11.0228C72.4364 11.0228 73.3626 11.949 73.3626 13.0916V16.0837Z" fill="white"/>
<circle cx="92.8252" cy="12.4646" r="1.79055" fill="white"/>
<circle cx="92.5864" cy="24.1575" r="1.79055" fill="white"/>
<circle cx="97.4805" cy="18.5525" r="1.79055" fill="white"/>
<circle cx="88.1699" cy="18.5525" r="1.79055" fill="white"/>
<path d="M12.789 83.0557C11.7823 83.5959 10.7756 83.7923 9.69524 83.7923C6.40504 83.7923 4.12154 81.5088 4.12154 78.2923C4.12154 75.0266 6.40504 72.7922 9.74434 72.7922C11.4877 72.7922 12.9363 73.4061 14.1886 74.732L16.7422 72.3748C15.0725 70.4351 12.568 69.4038 9.54792 69.4038C4.07243 69.4038 0.0947266 73.1114 0.0947266 78.2923C0.0947266 83.4731 4.07243 87.1807 9.47425 87.1807C11.9296 87.1807 14.5323 86.4195 16.423 84.9954V78.0222H12.789V83.0557Z" fill="white"/>
<path d="M33.8189 86.8861H37.993L30.3077 69.6985H26.3791L18.7184 86.8861H22.7943L24.3166 83.203H32.2966L33.8189 86.8861ZM25.5934 80.1829L28.3189 73.6025L31.0443 80.1829H25.5934Z" fill="white"/>
<path d="M54.0527 86.8861H58.2268L50.5415 69.6985H46.6129L38.9522 86.8861H43.0281L44.5504 83.203H52.5304L54.0527 86.8861ZM45.8272 80.1829L48.5527 73.6025L51.2781 80.1829H45.8272Z" fill="white"/>
<path d="M80.2423 86.8861L80.1932 69.6985H76.9276L70.5927 80.3793L64.1596 69.6985H60.8694V86.8861H64.6016V76.7945L69.6351 85.0691H71.4276L76.4856 76.5735L76.5102 86.8861H80.2423Z" fill="white"/>
<path d="M89.1327 83.6941V79.7164H97.1127V76.6226H89.1327V72.8904H98.1685V69.6985H85.1796V86.8861H98.4877V83.6941H89.1327Z" fill="white"/>
<path d="M106.072 86.8861H110.05V72.9395H115.55V69.6985H100.572V72.9395H106.072V86.8861Z" fill="white"/>
<path d="M118.55 86.8861H122.527V69.6985H118.55V86.8861Z" fill="white"/>
<path d="M127.466 86.8861H131.443V69.6985H127.466V86.8861Z" fill="white"/>
<path d="M155.755 86.8861L155.706 69.6985H152.44L146.105 80.3793L139.672 69.6985H136.382V86.8861H140.114V76.7945L145.147 85.0691H146.94L151.998 76.5735L152.023 86.8861H155.755Z" fill="white"/>
<path d="M164.645 83.6941V79.7164H172.625V76.6226H164.645V72.8904H173.681V69.6985H160.692V86.8861H174V83.6941H164.645Z" fill="white"/>
<mask id="path-9-outside-1_1_36" maskUnits="userSpaceOnUse" x="8.9458" y="95.0071" width="156" height="8" fill="black">
<rect fill="white" x="8.9458" y="95.0071" width="156" height="8"/>
<path d="M13.2567 102.448C14.1884 102.448 15.0207 102.131 15.5815 101.516L15.1564 101.091C14.6407 101.625 14.0075 101.851 13.2838 101.851C11.755 101.851 10.6062 100.729 10.6062 99.2275C10.6062 97.7258 11.755 96.6041 13.2838 96.6041C14.0075 96.6041 14.6407 96.8303 15.1564 97.355L15.5815 96.9298C15.0207 96.3146 14.1884 96.0071 13.2657 96.0071C11.357 96.0071 9.9458 97.373 9.9458 99.2275C9.9458 101.082 11.357 102.448 13.2567 102.448Z"/>
<path d="M20.0965 102.448C21.9961 102.448 23.4164 101.082 23.4164 99.2275C23.4164 97.373 21.9961 96.0071 20.0965 96.0071C18.1787 96.0071 16.7675 97.3821 16.7675 99.2275C16.7675 101.073 18.1787 102.448 20.0965 102.448ZM20.0965 101.851C18.5677 101.851 17.4279 100.738 17.4279 99.2275C17.4279 97.7168 18.5677 96.6041 20.0965 96.6041C21.6162 96.6041 22.747 97.7168 22.747 99.2275C22.747 100.738 21.6162 101.851 20.0965 101.851Z"/>
<path d="M30.0007 96.0614V101.2L25.921 96.0614H25.3691V102.394H26.0386V97.2554L30.1093 102.394H30.6611V96.0614H30.0007Z"/>
<path d="M37.8119 96.0614V101.2L33.7321 96.0614H33.1802V102.394H33.8497V97.2554L37.9204 102.394H38.4722V96.0614H37.8119Z"/>
<path d="M41.6608 101.815V99.4627H44.9355V98.8928H41.6608V96.6403H45.3335V96.0614H40.9914V102.394H45.4692V101.815H41.6608Z"/>
<path d="M50.2097 102.448C51.1414 102.448 51.9737 102.131 52.5345 101.516L52.1094 101.091C51.5938 101.625 50.9605 101.851 50.2368 101.851C48.708 101.851 47.5592 100.729 47.5592 99.2275C47.5592 97.7258 48.708 96.6041 50.2368 96.6041C50.9605 96.6041 51.5938 96.8303 52.1094 97.355L52.5345 96.9298C51.9737 96.3146 51.1414 96.0071 50.2187 96.0071C48.31 96.0071 46.8988 97.373 46.8988 99.2275C46.8988 101.082 48.31 102.448 50.2097 102.448Z"/>
<path d="M55.5646 102.394H56.234V96.6403H58.4594V96.0614H53.3393V96.6403H55.5646V102.394Z"/>
<path d="M70.852 96.0614L68.9976 101.534L67.134 96.0614H66.5099L64.6192 101.507L62.7919 96.0614H62.1044L64.2393 102.394H64.9358L66.7993 96.9931L68.6538 102.394H69.3594L71.4943 96.0614H70.852Z"/>
<path d="M73.174 102.394H73.8434V96.0614H73.174V102.394Z"/>
<path d="M77.5863 102.394H78.2557V96.6403H80.481V96.0614H75.3609V96.6403H77.5863V102.394Z"/>
<path d="M86.6344 96.0614V98.8837H82.6722V96.0614H82.0028V102.394H82.6722V99.4717H86.6344V102.394H87.2947V96.0614H86.6344Z"/>
<path d="M97.3377 96.0614H96.6683L94.4972 99.6165L92.3261 96.0614H91.6115L94.1444 100.204V102.394H94.8048V100.204L97.3377 96.0614Z"/>
<path d="M101.322 102.448C103.222 102.448 104.642 101.082 104.642 99.2275C104.642 97.373 103.222 96.0071 101.322 96.0071C99.4046 96.0071 97.9935 97.3821 97.9935 99.2275C97.9935 101.073 99.4046 102.448 101.322 102.448ZM101.322 101.851C99.7936 101.851 98.6538 100.738 98.6538 99.2275C98.6538 97.7168 99.7936 96.6041 101.322 96.6041C102.842 96.6041 103.973 97.7168 103.973 99.2275C103.973 100.738 102.842 101.851 101.322 101.851Z"/>
<path d="M109.146 102.448C110.765 102.448 111.742 101.507 111.742 99.6888V96.0614H111.091V99.6617C111.091 101.163 110.385 101.851 109.146 101.851C107.916 101.851 107.21 101.163 107.21 99.6617V96.0614H106.541V99.6888C106.541 101.507 107.527 102.448 109.146 102.448Z"/>
<path d="M119.269 102.394L117.722 100.223C118.644 99.924 119.169 99.2275 119.169 98.2324C119.169 96.8755 118.192 96.0614 116.582 96.0614H114.212V102.394H114.881V100.385H116.582C116.763 100.385 116.926 100.376 117.089 100.358L118.536 102.394H119.269ZM116.564 99.8155H114.881V96.6403H116.564C117.83 96.6403 118.5 97.2193 118.5 98.2324C118.5 99.2275 117.83 99.8155 116.564 99.8155Z"/>
<path d="M129.078 102.394L127.531 100.223C128.454 99.924 128.979 99.2275 128.979 98.2324C128.979 96.8755 128.002 96.0614 126.391 96.0614H124.021V102.394H124.691V100.385H126.391C126.572 100.385 126.735 100.376 126.898 100.358L128.345 102.394H129.078ZM126.373 99.8155H124.691V96.6403H126.373C127.64 96.6403 128.309 97.2193 128.309 98.2324C128.309 99.2275 127.64 99.8155 126.373 99.8155Z"/>
<path d="M131.68 101.815V99.4627H134.955V98.8928H131.68V96.6403H135.353V96.0614H131.011V102.394H135.489V101.815H131.68Z"/>
<path d="M142.246 102.394H142.951L140.056 96.0614H139.396L136.501 102.394H137.198L137.958 100.702H141.486L142.246 102.394ZM138.202 100.159L139.722 96.7579L141.241 100.159H138.202Z"/>
<path d="M144.451 102.394H148.666V101.815H145.12V96.0614H144.451V102.394Z"/>
<path d="M150.23 102.394H150.9V96.0614H150.23V102.394Z"/>
<path d="M154.643 102.394H155.312V96.6403H157.537V96.0614H152.417V96.6403H154.643V102.394Z"/>
<path d="M163.719 96.0614H163.049L160.878 99.6165L158.707 96.0614H157.993L160.526 100.204V102.394H161.186V100.204L163.719 96.0614Z"/>
</mask>
<path d="M13.2567 102.448C14.1884 102.448 15.0207 102.131 15.5815 101.516L15.1564 101.091C14.6407 101.625 14.0075 101.851 13.2838 101.851C11.755 101.851 10.6062 100.729 10.6062 99.2275C10.6062 97.7258 11.755 96.6041 13.2838 96.6041C14.0075 96.6041 14.6407 96.8303 15.1564 97.355L15.5815 96.9298C15.0207 96.3146 14.1884 96.0071 13.2657 96.0071C11.357 96.0071 9.9458 97.373 9.9458 99.2275C9.9458 101.082 11.357 102.448 13.2567 102.448Z" fill="white"/>
<path d="M20.0965 102.448C21.9961 102.448 23.4164 101.082 23.4164 99.2275C23.4164 97.373 21.9961 96.0071 20.0965 96.0071C18.1787 96.0071 16.7675 97.3821 16.7675 99.2275C16.7675 101.073 18.1787 102.448 20.0965 102.448ZM20.0965 101.851C18.5677 101.851 17.4279 100.738 17.4279 99.2275C17.4279 97.7168 18.5677 96.6041 20.0965 96.6041C21.6162 96.6041 22.747 97.7168 22.747 99.2275C22.747 100.738 21.6162 101.851 20.0965 101.851Z" fill="white"/>
<path d="M30.0007 96.0614V101.2L25.921 96.0614H25.3691V102.394H26.0386V97.2554L30.1093 102.394H30.6611V96.0614H30.0007Z" fill="white"/>
<path d="M37.8119 96.0614V101.2L33.7321 96.0614H33.1802V102.394H33.8497V97.2554L37.9204 102.394H38.4722V96.0614H37.8119Z" fill="white"/>
<path d="M41.6608 101.815V99.4627H44.9355V98.8928H41.6608V96.6403H45.3335V96.0614H40.9914V102.394H45.4692V101.815H41.6608Z" fill="white"/>
<path d="M50.2097 102.448C51.1414 102.448 51.9737 102.131 52.5345 101.516L52.1094 101.091C51.5938 101.625 50.9605 101.851 50.2368 101.851C48.708 101.851 47.5592 100.729 47.5592 99.2275C47.5592 97.7258 48.708 96.6041 50.2368 96.6041C50.9605 96.6041 51.5938 96.8303 52.1094 97.355L52.5345 96.9298C51.9737 96.3146 51.1414 96.0071 50.2187 96.0071C48.31 96.0071 46.8988 97.373 46.8988 99.2275C46.8988 101.082 48.31 102.448 50.2097 102.448Z" fill="white"/>
<path d="M55.5646 102.394H56.234V96.6403H58.4594V96.0614H53.3393V96.6403H55.5646V102.394Z" fill="white"/>
<path d="M70.852 96.0614L68.9976 101.534L67.134 96.0614H66.5099L64.6192 101.507L62.7919 96.0614H62.1044L64.2393 102.394H64.9358L66.7993 96.9931L68.6538 102.394H69.3594L71.4943 96.0614H70.852Z" fill="white"/>
<path d="M73.174 102.394H73.8434V96.0614H73.174V102.394Z" fill="white"/>
<path d="M77.5863 102.394H78.2557V96.6403H80.481V96.0614H75.3609V96.6403H77.5863V102.394Z" fill="white"/>
<path d="M86.6344 96.0614V98.8837H82.6722V96.0614H82.0028V102.394H82.6722V99.4717H86.6344V102.394H87.2947V96.0614H86.6344Z" fill="white"/>
<path d="M97.3377 96.0614H96.6683L94.4972 99.6165L92.3261 96.0614H91.6115L94.1444 100.204V102.394H94.8048V100.204L97.3377 96.0614Z" fill="white"/>
<path d="M101.322 102.448C103.222 102.448 104.642 101.082 104.642 99.2275C104.642 97.373 103.222 96.0071 101.322 96.0071C99.4046 96.0071 97.9935 97.3821 97.9935 99.2275C97.9935 101.073 99.4046 102.448 101.322 102.448ZM101.322 101.851C99.7936 101.851 98.6538 100.738 98.6538 99.2275C98.6538 97.7168 99.7936 96.6041 101.322 96.6041C102.842 96.6041 103.973 97.7168 103.973 99.2275C103.973 100.738 102.842 101.851 101.322 101.851Z" fill="white"/>
<path d="M109.146 102.448C110.765 102.448 111.742 101.507 111.742 99.6888V96.0614H111.091V99.6617C111.091 101.163 110.385 101.851 109.146 101.851C107.916 101.851 107.21 101.163 107.21 99.6617V96.0614H106.541V99.6888C106.541 101.507 107.527 102.448 109.146 102.448Z" fill="white"/>
<path d="M119.269 102.394L117.722 100.223C118.644 99.924 119.169 99.2275 119.169 98.2324C119.169 96.8755 118.192 96.0614 116.582 96.0614H114.212V102.394H114.881V100.385H116.582C116.763 100.385 116.926 100.376 117.089 100.358L118.536 102.394H119.269ZM116.564 99.8155H114.881V96.6403H116.564C117.83 96.6403 118.5 97.2193 118.5 98.2324C118.5 99.2275 117.83 99.8155 116.564 99.8155Z" fill="white"/>
<path d="M129.078 102.394L127.531 100.223C128.454 99.924 128.979 99.2275 128.979 98.2324C128.979 96.8755 128.002 96.0614 126.391 96.0614H124.021V102.394H124.691V100.385H126.391C126.572 100.385 126.735 100.376 126.898 100.358L128.345 102.394H129.078ZM126.373 99.8155H124.691V96.6403H126.373C127.64 96.6403 128.309 97.2193 128.309 98.2324C128.309 99.2275 127.64 99.8155 126.373 99.8155Z" fill="white"/>
<path d="M131.68 101.815V99.4627H134.955V98.8928H131.68V96.6403H135.353V96.0614H131.011V102.394H135.489V101.815H131.68Z" fill="white"/>
<path d="M142.246 102.394H142.951L140.056 96.0614H139.396L136.501 102.394H137.198L137.958 100.702H141.486L142.246 102.394ZM138.202 100.159L139.722 96.7579L141.241 100.159H138.202Z" fill="white"/>
<path d="M144.451 102.394H148.666V101.815H145.12V96.0614H144.451V102.394Z" fill="white"/>
<path d="M150.23 102.394H150.9V96.0614H150.23V102.394Z" fill="white"/>
<path d="M154.643 102.394H155.312V96.6403H157.537V96.0614H152.417V96.6403H154.643V102.394Z" fill="white"/>
<path d="M163.719 96.0614H163.049L160.878 99.6165L158.707 96.0614H157.993L160.526 100.204V102.394H161.186V100.204L163.719 96.0614Z" fill="white"/>
<path d="M13.2567 102.448C14.1884 102.448 15.0207 102.131 15.5815 101.516L15.1564 101.091C14.6407 101.625 14.0075 101.851 13.2838 101.851C11.755 101.851 10.6062 100.729 10.6062 99.2275C10.6062 97.7258 11.755 96.6041 13.2838 96.6041C14.0075 96.6041 14.6407 96.8303 15.1564 97.355L15.5815 96.9298C15.0207 96.3146 14.1884 96.0071 13.2657 96.0071C11.357 96.0071 9.9458 97.373 9.9458 99.2275C9.9458 101.082 11.357 102.448 13.2567 102.448Z" stroke="white" stroke-width="0.6" mask="url(#path-9-outside-1_1_36)"/>
<path d="M20.0965 102.448C21.9961 102.448 23.4164 101.082 23.4164 99.2275C23.4164 97.373 21.9961 96.0071 20.0965 96.0071C18.1787 96.0071 16.7675 97.3821 16.7675 99.2275C16.7675 101.073 18.1787 102.448 20.0965 102.448ZM20.0965 101.851C18.5677 101.851 17.4279 100.738 17.4279 99.2275C17.4279 97.7168 18.5677 96.6041 20.0965 96.6041C21.6162 96.6041 22.747 97.7168 22.747 99.2275C22.747 100.738 21.6162 101.851 20.0965 101.851Z" stroke="white" stroke-width="0.6" mask="url(#path-9-outside-1_1_36)"/>
<path d="M30.0007 96.0614V101.2L25.921 96.0614H25.3691V102.394H26.0386V97.2554L30.1093 102.394H30.6611V96.0614H30.0007Z" stroke="white" stroke-width="0.6" mask="url(#path-9-outside-1_1_36)"/>
<path d="M37.8119 96.0614V101.2L33.7321 96.0614H33.1802V102.394H33.8497V97.2554L37.9204 102.394H38.4722V96.0614H37.8119Z" stroke="white" stroke-width="0.6" mask="url(#path-9-outside-1_1_36)"/>
<path d="M41.6608 101.815V99.4627H44.9355V98.8928H41.6608V96.6403H45.3335V96.0614H40.9914V102.394H45.4692V101.815H41.6608Z" stroke="white" stroke-width="0.6" mask="url(#path-9-outside-1_1_36)"/>
<path d="M50.2097 102.448C51.1414 102.448 51.9737 102.131 52.5345 101.516L52.1094 101.091C51.5938 101.625 50.9605 101.851 50.2368 101.851C48.708 101.851 47.5592 100.729 47.5592 99.2275C47.5592 97.7258 48.708 96.6041 50.2368 96.6041C50.9605 96.6041 51.5938 96.8303 52.1094 97.355L52.5345 96.9298C51.9737 96.3146 51.1414 96.0071 50.2187 96.0071C48.31 96.0071 46.8988 97.373 46.8988 99.2275C46.8988 101.082 48.31 102.448 50.2097 102.448Z" stroke="white" stroke-width="0.6" mask="url(#path-9-outside-1_1_36)"/>
<path d="M55.5646 102.394H56.234V96.6403H58.4594V96.0614H53.3393V96.6403H55.5646V102.394Z" stroke="white" stroke-width="0.6" mask="url(#path-9-outside-1_1_36)"/>
<path d="M70.852 96.0614L68.9976 101.534L67.134 96.0614H66.5099L64.6192 101.507L62.7919 96.0614H62.1044L64.2393 102.394H64.9358L66.7993 96.9931L68.6538 102.394H69.3594L71.4943 96.0614H70.852Z" stroke="white" stroke-width="0.6" mask="url(#path-9-outside-1_1_36)"/>
<path d="M73.174 102.394H73.8434V96.0614H73.174V102.394Z" stroke="white" stroke-width="0.6" mask="url(#path-9-outside-1_1_36)"/>
<path d="M77.5863 102.394H78.2557V96.6403H80.481V96.0614H75.3609V96.6403H77.5863V102.394Z" stroke="white" stroke-width="0.6" mask="url(#path-9-outside-1_1_36)"/>
<path d="M86.6344 96.0614V98.8837H82.6722V96.0614H82.0028V102.394H82.6722V99.4717H86.6344V102.394H87.2947V96.0614H86.6344Z" stroke="white" stroke-width="0.6" mask="url(#path-9-outside-1_1_36)"/>
<path d="M97.3377 96.0614H96.6683L94.4972 99.6165L92.3261 96.0614H91.6115L94.1444 100.204V102.394H94.8048V100.204L97.3377 96.0614Z" stroke="white" stroke-width="0.6" mask="url(#path-9-outside-1_1_36)"/>
<path d="M101.322 102.448C103.222 102.448 104.642 101.082 104.642 99.2275C104.642 97.373 103.222 96.0071 101.322 96.0071C99.4046 96.0071 97.9935 97.3821 97.9935 99.2275C97.9935 101.073 99.4046 102.448 101.322 102.448ZM101.322 101.851C99.7936 101.851 98.6538 100.738 98.6538 99.2275C98.6538 97.7168 99.7936 96.6041 101.322 96.6041C102.842 96.6041 103.973 97.7168 103.973 99.2275C103.973 100.738 102.842 101.851 101.322 101.851Z" stroke="white" stroke-width="0.6" mask="url(#path-9-outside-1_1_36)"/>
<path d="M109.146 102.448C110.765 102.448 111.742 101.507 111.742 99.6888V96.0614H111.091V99.6617C111.091 101.163 110.385 101.851 109.146 101.851C107.916 101.851 107.21 101.163 107.21 99.6617V96.0614H106.541V99.6888C106.541 101.507 107.527 102.448 109.146 102.448Z" stroke="white" stroke-width="0.6" mask="url(#path-9-outside-1_1_36)"/>
<path d="M119.269 102.394L117.722 100.223C118.644 99.924 119.169 99.2275 119.169 98.2324C119.169 96.8755 118.192 96.0614 116.582 96.0614H114.212V102.394H114.881V100.385H116.582C116.763 100.385 116.926 100.376 117.089 100.358L118.536 102.394H119.269ZM116.564 99.8155H114.881V96.6403H116.564C117.83 96.6403 118.5 97.2193 118.5 98.2324C118.5 99.2275 117.83 99.8155 116.564 99.8155Z" stroke="white" stroke-width="0.6" mask="url(#path-9-outside-1_1_36)"/>
<path d="M129.078 102.394L127.531 100.223C128.454 99.924 128.979 99.2275 128.979 98.2324C128.979 96.8755 128.002 96.0614 126.391 96.0614H124.021V102.394H124.691V100.385H126.391C126.572 100.385 126.735 100.376 126.898 100.358L128.345 102.394H129.078ZM126.373 99.8155H124.691V96.6403H126.373C127.64 96.6403 128.309 97.2193 128.309 98.2324C128.309 99.2275 127.64 99.8155 126.373 99.8155Z" stroke="white" stroke-width="0.6" mask="url(#path-9-outside-1_1_36)"/>
<path d="M131.68 101.815V99.4627H134.955V98.8928H131.68V96.6403H135.353V96.0614H131.011V102.394H135.489V101.815H131.68Z" stroke="white" stroke-width="0.6" mask="url(#path-9-outside-1_1_36)"/>
<path d="M142.246 102.394H142.951L140.056 96.0614H139.396L136.501 102.394H137.198L137.958 100.702H141.486L142.246 102.394ZM138.202 100.159L139.722 96.7579L141.241 100.159H138.202Z" stroke="white" stroke-width="0.6" mask="url(#path-9-outside-1_1_36)"/>
<path d="M144.451 102.394H148.666V101.815H145.12V96.0614H144.451V102.394Z" stroke="white" stroke-width="0.6" mask="url(#path-9-outside-1_1_36)"/>
<path d="M150.23 102.394H150.9V96.0614H150.23V102.394Z" stroke="white" stroke-width="0.6" mask="url(#path-9-outside-1_1_36)"/>
<path d="M154.643 102.394H155.312V96.6403H157.537V96.0614H152.417V96.6403H154.643V102.394Z" stroke="white" stroke-width="0.6" mask="url(#path-9-outside-1_1_36)"/>
<path d="M163.719 96.0614H163.049L160.878 99.6165L158.707 96.0614H157.993L160.526 100.204V102.394H161.186V100.204L163.719 96.0614Z" stroke="white" stroke-width="0.6" mask="url(#path-9-outside-1_1_36)"/>
</svg>
